# File created by Blade
# Date/Time:  Mon Sep 29 17:58:21 2014
# Frame Rate: 120.000 fps
#------------------------------------------------------
:FULLY-SPECIFIED
:DEGREES
3174
root -5.521624 14.059889 1.525190 17.403236 29.612220 -3.792371
Spine 24.881025 10.618927 -2.665556
Head -71.734685 -8.925822 19.229371
LeftShoulder 6.353996 4.200190 15.979440
LeftArm 36.135272 23.691104 -36.041487
LeftForeArm 10.638202 -0.000000 38.681966
LeftHand -20.911938 -0.000000 -1.094489
LeftHandThumb1 -26.253704 0.000000 33.147579
RightShoulder 1.809742 38.032035 -34.999753
RightArm 15.463034 1.831799 55.112052
RightForeArm -5.560942 0.000000 17.704545
RightHand -2.615005 -0.000000 16.215692
RightHandThumb1 -24.326973 -0.000000 -32.862282
LeftUpLeg -110.677427 -2.356572 6.077370
LeftLeg 122.423804 -0.000000 -0.000000
LeftFoot -35.609073 11.375189 -8.115257
LeftToeBase 8.978187 -0.000000 -0.000000
RightUpLeg -95.321384 1.743379 8.225911
RightLeg 145.707488 -0.000000 -0.000000
RightFoot -18.134691 3.647634 2.034367
RightToeBase -58.569161 -0.000000 0.000000
3175
root -5.432113 14.275495 1.501029 18.168842 29.534549 -2.955250
Spine 24.457662 10.797477 -2.849615
Head -72.079533 -9.076635 18.883950
LeftShoulder 6.335378 4.235949 16.062771
LeftArm 36.195608 23.051248 -36.786145
LeftForeArm 11.034093 -0.000000 39.763417
LeftHand -20.749065 -0.000000 -1.586693
LeftHandThumb1 -26.253704 0.000000 33.147579
RightShoulder 1.654972 37.841814 -35.076882
RightArm 16.041421 1.772994 55.916778
RightForeArm -5.612667 -0.000000 17.969658
RightHand -2.629112 -0.000000 15.983550
RightHandThumb1 -24.326973 -0.000000 -32.862282
LeftUpLeg -110.097814 -2.731952 5.195685
LeftLeg 121.606195 -0.000000 -0.000000
LeftFoot -35.824469 11.539826 -8.316638
LeftToeBase 9.084158 -0.000000 -0.000000
RightUpLeg -95.105560 1.440089 7.316158
RightLeg 145.088731 -0.000000 -0.000000
RightFoot -18.377077 3.257882 1.785024
RightToeBase -58.144159 -0.000000 0.000000
3176
root -5.338413 14.495627 1.482123 18.880561 29.400114 -2.121379
Spine 24.081791 11.033903 -3.067130
Head -72.396644 -9.248353 18.579655
LeftShoulder 6.259640 4.245209 16.126658
LeftArm 36.298996 22.426586 -37.490850
LeftForeArm 11.423124 -0.000000 40.716525
LeftHand -20.512825 -0.000000 -2.339998
LeftHandThumb1 -26.253704 0.000000 33.147579
RightShoulder 1.553476 37.634945 -35.119581
RightArm 16.466890 1.933776 56.885115
RightForeArm -6.000234 0.000000 18.316164
RightHand -2.792069 -0.000000 15.274814
RightHandThumb1 -24.326973 -0.000000 -32.862282
LeftUpLeg -109.467105 -3.066312 4.344928
LeftLeg 120.790399 -0.000000 -0.000000
LeftFoot -35.962862 11.510760 -8.687386
LeftToeBase 9.086664 -0.000000 -0.000000
RightUpLeg -94.833469 1.170953 6.441432
RightLeg 144.460995 -0.000000 -0.000000
RightFoot -18.536704 2.658721 1.532547
RightToeBase -57.641376 -0.000000 0.000000
3177
root -5.256662 14.719617 1.469522 19.475565 29.204926 -1.481518
Spine 23.707589 11.377148 -3.127646
Head -72.648023 -9.495896 18.243724
LeftShoulder 6.204582 4.290820 16.194531
LeftArm 36.413700 21.738400 -38.202844
LeftForeArm 11.225269 -0.000000 41.575271
LeftHand -20.184095 -0.000000 -3.196388
LeftHandThumb1 -26.253704 0.000000 33.147579
RightShoulder 1.454351 37.470861 -35.167496
RightArm 16.736744 2.058105 57.929750
RightForeArm -6.098973 0.000000 18.810073
RightHand -2.484738 0.000000 15.052972
RightHandThumb1 -24.326973 -0.000000 -32.862282
LeftUpLeg -108.817382 -3.251194 3.675123
LeftLeg 120.000207 -0.000000 -0.000000
LeftFoot -35.959062 11.462128 -8.817578
LeftToeBase 8.639861 -0.000000 -0.000000
RightUpLeg -94.514661 1.058538 5.726567
RightLeg 143.761796 -0.000000 -0.000000
RightFoot -18.669181 2.184170 1.443853
RightToeBase -57.535396 -0.000000 0.000000
3178
root -5.169202 14.944787 1.457672 20.018204 29.048477 -0.836436
Spine 23.361714 11.668054 -3.164523
Head -72.806619 -9.785147 17.928142
LeftShoulder 6.200777 4.379093 16.294197
LeftArm 36.557510 21.198395 -38.834869
LeftForeArm 11.341880 -0.000000 42.286729
LeftHand -19.947675 0.000000 -3.874581
LeftHandThumb1 -26.253704 0.000000 33.147579
RightShoulder 1.331579 36.979596 -35.085787
RightArm 17.340902 2.274431 58.949487
RightForeArm -6.005395 -0.000000 19.269681
RightHand -2.570427 -0.000000 14.621132
RightHandThumb1 -24.326973 -0.000000 -32.862282
LeftUpLeg -108.125312 -3.505369 3.038006
LeftLeg 119.187030 -0.000000 -0.000000
LeftFoot -36.159745 11.274829 -9.292248
LeftToeBase 8.896766 -0.000000 -0.000000
RightUpLeg -94.160073 0.879643 5.027493
RightLeg 143.059257 -0.000000 -0.000000
RightFoot -18.769668 1.668258 1.277215
RightToeBase -57.111731 -0.000000 0.000000
